<svg xmlns:inkscape="http://www.inkscape.org/namespaces/inkscape" xmlns:sodipodi="http://sodipodi.sourceforge.net/DTD/sodipodi-0.dtd" xmlns="http://www.w3.org/2000/svg" xmlns:svg="http://www.w3.org/2000/svg" id="Layer_1" x="0px" y="0px" viewBox="0 0 991.32501 258.39999" xml:space="preserve" width="991.32501" height="258.39999">  <defs id="defs962"></defs>  <g id="g957" transform="translate(-504.375,-870.8)">	<g id="g921">		<path fill="#206f6a" d="m 558.2,1001.4 90.3,-90.3 -40.3,-40.3 -85.9,85.9 c -23.9,23.9 -23.9,62.7 0,86.6 l 45.6,45.6 31.3,-68.8 z" id="path917"></path>		<path fill="#206f6a" d="m 694.2,956.7 -45.6,-45.6 -31.3,68.9 40.9,18.6 -90.3,90.3 40.3,40.3 85.9,-85.9 c 24,-23.9 24,-62.7 0.1,-86.6 z" id="path919"></path>	</g>	<g id="g955">		<g id="g953">			<g id="g935">				<path fill="#206f6a" d="m 1044.9,1113.5 v -58 h 38.4 v 7.6 h -30.2 v 17.2 h 28 v 7.5 h -28 v 18.1 h 31 v 7.6 z" id="path923"></path>				<path fill="#206f6a" d="m 1135.8,1070.6 v 5.4 c 1.2,-1.8 3,-3.3 5.4,-4.4 2.3,-1.1 5,-1.7 8.1,-1.7 5,0 9.1,1.6 12.1,4.7 3,3.1 4.5,7.3 4.5,12.6 v 26.3 h -7.4 v -25.3 c 0,-3.5 -0.9,-6.3 -2.8,-8.3 -1.9,-2.1 -4.5,-3.1 -7.8,-3.1 -3.7,0 -6.6,1.1 -8.8,3.4 -2.2,2.3 -3.3,5.3 -3.3,9.2 v 24.2 h -7.4 v -42.9 h 7.4 z" id="path925"></path>				<path fill="#206f6a" d="m 1252.2,1103.6 c -4.5,7.1 -11.2,10.7 -20.3,10.7 -6.6,0 -11.9,-2.1 -16,-6.4 -4.1,-4.2 -6.2,-9.5 -6.2,-15.9 0,-6.2 2.1,-11.5 6.3,-15.7 4.2,-4.3 9.5,-6.4 15.9,-6.4 6.5,0 11.8,2 15.8,6.1 4,4.1 6,9.1 6,15.1 0,1.4 -0.1,2.5 -0.3,3.4 h -36.3 c 0.5,4 2,7.1 4.7,9.5 2.7,2.4 6.1,3.6 10.3,3.6 6.3,0 11.1,-2.5 14.3,-7.5 z m -20.2,-27.3 c -3.8,0 -7.1,1.1 -9.7,3.3 -2.6,2.2 -4.2,5.1 -4.9,8.9 h 28.6 c -0.6,-3.8 -2.1,-6.7 -4.7,-8.9 -2.5,-2.2 -5.7,-3.3 -9.3,-3.3 z" id="path927"></path>				<path fill="#206f6a" d="m 1318.5,1070 v 7.6 c -4.2,0 -7.5,1.3 -9.9,3.9 -2.4,2.6 -3.6,6 -3.6,10.3 v 21.7 h -7.5 v -42.9 h 7.4 v 7.1 c 3.1,-5.1 7.7,-7.7 13.6,-7.7 z" id="path929"></path>				<path fill="#206f6a" d="m 1380.5,1129.2 c -9.1,0 -15.9,-3.5 -20.4,-10.6 l 5.7,-3.6 c 3.2,5.1 8.1,7.6 14.7,7.6 4.6,0 8.1,-1 10.6,-3.1 2.5,-2.1 3.8,-5.2 3.8,-9.2 v -3.6 c -3.7,4.3 -8.7,6.4 -15.2,6.4 -6,0 -11.1,-2.1 -15.3,-6.3 -4.2,-4.2 -6.3,-9.3 -6.3,-15.3 0,-6 2.1,-11.2 6.3,-15.3 4.2,-4.2 9.3,-6.3 15.2,-6.3 6.3,0 11.4,2.1 15.2,6.4 v -5.7 h 7.4 v 39.2 c 0,5.6 -1.9,10.2 -5.8,13.9 -3.9,3.7 -9.2,5.5 -15.9,5.5 z m -0.4,-52.4 c -4.1,0 -7.6,1.4 -10.5,4.3 -2.9,2.9 -4.3,6.4 -4.3,10.6 0,4.2 1.4,7.7 4.3,10.6 2.9,2.9 6.3,4.3 10.5,4.3 4.3,0 7.9,-1.4 10.7,-4.2 2.9,-2.8 4.3,-6.4 4.3,-10.6 0,-4.2 -1.4,-7.8 -4.3,-10.6 -2.9,-3 -6.5,-4.4 -10.7,-4.4 z" id="path931"></path>				<path fill="#206f6a" d="m 1485.2,1070.6 -15.2,41.7 c -2,5.6 -4.5,9.7 -7.5,12.2 -3,2.5 -6.9,3.7 -11.8,3.7 h -1.9 v -6.8 h 1.9 c 5.3,0 9.1,-2.9 11.6,-8.7 l -17.1,-42.1 h 8.3 l 12.6,32.5 11.4,-32.5 z" id="path933"></path>			</g>			<g id="g951">				<path fill="#2179a1" d="m 869.8,1035.6 -14,-36.8 h -75.6 l -13.7,36.8 h -24.8 l 63.8,-164.8 h 25.7 L 895,1035.6 Z M 847.9,977.4 818,898.5 788.4,977.4 Z" id="path937"></path>				<path fill="#2179a1" d="m 964.1,1080.4 c -25.8,0 -45.2,-10 -58,-30.1 l 16.1,-10.1 c 9.1,14.4 23,21.7 41.6,21.7 13,0 23.1,-3 30.2,-8.9 7.1,-5.9 10.7,-14.7 10.7,-26.2 v -10.3 c -10.4,12.2 -24.8,18.3 -43.1,18.3 -17,0 -31.4,-5.9 -43.3,-17.8 -11.9,-11.9 -17.8,-26.4 -17.8,-43.6 0,-17.2 6,-31.7 17.9,-43.6 11.9,-11.9 26.3,-17.8 43.2,-17.8 18,0 32.3,6 43.1,18 v -16.1 h 20.9 v 111.4 c 0,15.9 -5.5,29 -16.5,39.5 -10.9,10.4 -25.9,15.6 -45,15.6 z m -1.2,-149 c -11.7,0 -21.6,4.1 -29.7,12.2 -8.1,8.1 -12.2,18.1 -12.2,30 0,11.9 4,21.9 12.2,30 8.1,8.1 18,12.2 29.7,12.2 12.2,0 22.3,-4 30.4,-12 8.1,-8 12.2,-18 12.2,-30.1 0,-12 -4.1,-22.1 -12.3,-30.1 -8.2,-8.2 -18.3,-12.2 -30.3,-12.2 z" id="path939"></path>				<path fill="#2179a1" d="m 1104.4,912.2 v 21.7 c -11.9,0 -21.2,3.7 -28,10.9 -6.8,7.3 -10.2,17 -10.2,29.2 v 61.6 H 1045 V 913.9 h 20.9 v 20.2 c 8.8,-14.6 21.6,-21.9 38.5,-21.9 z" id="path941"></path>				<path fill="#2179a1" d="m 1214.4,1035.6 v -16.4 c -11.1,12.2 -25.7,18.3 -43.8,18.3 -17,0 -31.6,-6.1 -43.7,-18.2 -12.1,-12.1 -18.2,-26.9 -18.2,-44.4 0,-17.5 6.1,-32.3 18.2,-44.5 12.1,-12.2 26.7,-18.3 43.7,-18.3 17.6,0 32.2,5.9 43.8,17.8 v -16.1 h 20.9 v 121.8 z m -42.6,-103.7 c -12,0 -22.1,4.2 -30.2,12.5 -8.1,8.3 -12.2,18.5 -12.2,30.6 0,12 4,22.2 12.2,30.6 8.1,8.3 18.2,12.5 30.2,12.5 12.2,0 22.4,-4.1 30.7,-12.4 8.3,-8.3 12.4,-18.5 12.4,-30.7 0,-12 -4.1,-22.2 -12.4,-30.6 -8.3,-8.3 -18.6,-12.5 -30.7,-12.5 z" id="path943"></path>				<path fill="#2179a1" d="m 1314,912.2 v 21.7 c -11.9,0 -21.2,3.7 -28,10.9 -6.8,7.3 -10.2,17 -10.2,29.2 v 61.6 h -21.2 V 913.9 h 20.9 v 20.2 c 8.8,-14.6 21.6,-21.9 38.5,-21.9 z" id="path945"></path>				<path fill="#2179a1" d="m 1352,892 h -21.2 v -21.2 h 21.2 z m 0,143.6 h -21.2 V 913.9 h 21.2 z" id="path947"></path>				<path fill="#2179a1" d="m 1386.6,930.1 c 12.2,-12.1 27.3,-18.2 45.5,-18.2 18.1,0 33.2,6.1 45.4,18.2 12.1,12.1 18.2,27 18.2,44.6 0,17.8 -6.1,32.8 -18.2,45 -12.1,12.2 -27.2,18.3 -45.4,18.3 -18.3,0 -33.5,-6.1 -45.6,-18.3 -12.1,-12.2 -18.2,-27.2 -18.2,-45 0,-17.6 6.1,-32.5 18.3,-44.6 z m 76,13.6 c -8.1,-8.3 -18.3,-12.5 -30.4,-12.5 -12.2,0 -22.4,4.2 -30.6,12.5 -8.2,8.3 -12.3,18.8 -12.3,31.3 0,12.5 4,22.9 12,31.2 8,8.3 18.1,12.4 30.3,12.4 12.2,0 22.4,-4.2 30.7,-12.5 8.3,-8.3 12.4,-18.7 12.4,-31 0,-12.6 -4,-23.1 -12.1,-31.4 z" id="path949"></path>			</g>		</g>	</g></g></svg>